<svg width="469" height="164" viewBox="0 0 469 164" fill="none" xmlns="http://www.w3.org/2000/svg">
<path d="M424.159 94.944C421.471 94.944 418.815 94.528 416.191 93.696C413.567 92.864 411.423 91.712 409.759 90.24L415.231 79.584C416.383 80.608 417.695 81.408 419.167 81.984C420.703 82.56 422.207 82.848 423.679 82.848C425.791 82.848 427.455 82.336 428.671 81.312C429.951 80.352 431.103 78.72 432.127 76.416L434.815 70.08L435.967 68.448L454.495 23.904H468.895L445.567 78.72C443.903 82.88 441.983 86.144 439.807 88.512C437.695 90.88 435.327 92.544 432.703 93.504C430.143 94.464 427.295 94.944 424.159 94.944ZM432.991 77.568L409.951 23.904H425.407L443.263 67.104L432.991 77.568Z" fill="black"/>
<path d="M388.756 75.552V4.32001H403.732V75.552H388.756Z" fill="black"/>
<path d="M355.132 76.32C350.716 76.32 346.46 75.808 342.364 74.784C338.332 73.696 335.132 72.352 332.764 70.752L337.756 60C340.124 61.472 342.908 62.688 346.108 63.648C349.372 64.544 352.572 64.992 355.708 64.992C359.164 64.992 361.596 64.576 363.004 63.744C364.476 62.912 365.212 61.76 365.212 60.288C365.212 59.072 364.636 58.176 363.484 57.6C362.396 56.96 360.924 56.48 359.068 56.16C357.212 55.84 355.164 55.52 352.924 55.2C350.748 54.88 348.54 54.464 346.3 53.952C344.06 53.376 342.012 52.544 340.156 51.456C338.3 50.368 336.796 48.896 335.644 47.04C334.556 45.184 334.012 42.784 334.012 39.84C334.012 36.576 334.94 33.696 336.796 31.2C338.716 28.704 341.468 26.752 345.052 25.344C348.636 23.872 352.924 23.136 357.916 23.136C361.436 23.136 365.02 23.52 368.668 24.288C372.316 25.056 375.356 26.176 377.788 27.648L372.796 38.304C370.3 36.832 367.772 35.84 365.212 35.328C362.716 34.752 360.284 34.464 357.916 34.464C354.588 34.464 352.156 34.912 350.62 35.808C349.084 36.704 348.316 37.856 348.316 39.264C348.316 40.544 348.86 41.504 349.948 42.144C351.1 42.784 352.604 43.296 354.46 43.68C356.316 44.064 358.332 44.416 360.508 44.736C362.748 44.992 364.988 45.408 367.228 45.984C369.468 46.56 371.484 47.392 373.276 48.48C375.132 49.504 376.636 50.944 377.788 52.8C378.94 54.592 379.516 56.96 379.516 59.904C379.516 63.104 378.556 65.952 376.636 68.448C374.716 70.88 371.932 72.8 368.284 74.208C364.7 75.616 360.316 76.32 355.132 76.32Z" fill="black"/>
<path d="M293.642 76.32C289.354 76.32 285.513 75.488 282.121 73.824C278.793 72.16 276.201 69.632 274.345 66.24C272.489 62.784 271.561 58.4 271.561 53.088V23.904H286.538V50.88C286.538 55.168 287.433 58.336 289.225 60.384C291.081 62.368 293.673 63.36 297.001 63.36C299.305 63.36 301.354 62.88 303.146 61.92C304.938 60.896 306.346 59.36 307.37 57.312C308.394 55.2 308.906 52.576 308.906 49.44V23.904H323.882V75.552H309.673V61.344L312.266 65.472C310.538 69.056 307.978 71.776 304.586 73.632C301.258 75.424 297.61 76.32 293.642 76.32Z" fill="black"/>
<path d="M233.519 76.32C228.015 76.32 223.119 75.168 218.831 72.864C214.607 70.56 211.247 67.424 208.751 63.456C206.319 59.424 205.103 54.848 205.103 49.728C205.103 44.544 206.319 39.968 208.751 36C211.247 31.968 214.607 28.832 218.831 26.592C223.119 24.288 228.015 23.136 233.519 23.136C238.959 23.136 243.823 24.288 248.111 26.592C252.399 28.832 255.759 31.936 258.191 35.904C260.623 39.872 261.839 44.48 261.839 49.728C261.839 54.848 260.623 59.424 258.191 63.456C255.759 67.424 252.399 70.56 248.111 72.864C243.823 75.168 238.959 76.32 233.519 76.32ZM233.519 64.032C236.015 64.032 238.255 63.456 240.239 62.304C242.223 61.152 243.791 59.52 244.943 57.408C246.095 55.232 246.671 52.672 246.671 49.728C246.671 46.72 246.095 44.16 244.943 42.048C243.791 39.936 242.223 38.304 240.239 37.152C238.255 36 236.015 35.424 233.519 35.424C231.023 35.424 228.783 36 226.799 37.152C224.815 38.304 223.215 39.936 221.999 42.048C220.847 44.16 220.271 46.72 220.271 49.728C220.271 52.672 220.847 55.232 221.999 57.408C223.215 59.52 224.815 61.152 226.799 62.304C228.783 63.456 231.023 64.032 233.519 64.032Z" fill="black"/>
<path d="M180.068 75.552V23.904H195.044V75.552H180.068ZM187.556 16.704C184.804 16.704 182.564 15.904 180.836 14.304C179.108 12.704 178.244 10.72 178.244 8.352C178.244 5.984 179.108 4 180.836 2.4C182.564 0.800001 184.804 0 187.556 0C190.308 0 192.548 0.768002 194.276 2.304C196.004 3.776 196.868 5.696 196.868 8.064C196.868 10.56 196.004 12.64 194.276 14.304C192.612 15.904 190.372 16.704 187.556 16.704Z" fill="black"/>
<path d="M139.006 75.552V23.904H153.31V38.496L151.294 34.272C152.83 30.624 155.294 27.872 158.686 26.016C162.078 24.096 166.206 23.136 171.07 23.136V36.96C170.43 36.896 169.854 36.864 169.342 36.864C168.83 36.8 168.286 36.768 167.71 36.768C163.614 36.768 160.286 37.952 157.726 40.32C155.23 42.624 153.982 46.24 153.982 51.168V75.552H139.006Z" fill="black"/>
<path d="M94.8915 76.32C90.6035 76.32 86.7635 75.488 83.3715 73.824C80.0435 72.16 77.4515 69.632 75.5955 66.24C73.7395 62.784 72.8115 58.4 72.8115 53.088V23.904H87.7875V50.88C87.7875 55.168 88.6835 58.336 90.4755 60.384C92.3315 62.368 94.9235 63.36 98.2515 63.36C100.555 63.36 102.603 62.88 104.395 61.92C106.187 60.896 107.595 59.36 108.619 57.312C109.643 55.2 110.155 52.576 110.155 49.44V23.904H125.131V75.552H110.923V61.344L113.515 65.472C111.787 69.056 109.227 71.776 105.835 73.632C102.507 75.424 98.8595 76.32 94.8915 76.32Z" fill="black"/>
<path d="M37.128 76.704C31.944 76.704 27.112 75.872 22.632 74.208C18.216 72.48 14.376 70.048 11.112 66.912C7.84799 63.776 5.28799 60.096 3.43199 55.872C1.63999 51.648 0.743988 47.008 0.743988 41.952C0.743988 36.896 1.63999 32.256 3.43199 28.032C5.28799 23.808 7.84799 20.128 11.112 16.992C14.44 13.856 18.312 11.456 22.728 9.79201C27.144 8.06401 31.976 7.20001 37.224 7.20001C43.048 7.20001 48.296 8.22401 52.968 10.272C57.704 12.256 61.672 15.2 64.872 19.104L54.888 28.32C52.584 25.696 50.024 23.744 47.208 22.464C44.392 21.12 41.32 20.448 37.992 20.448C34.856 20.448 31.976 20.96 29.352 21.984C26.728 23.008 24.456 24.48 22.536 26.4C20.616 28.32 19.112 30.592 18.024 33.216C17 35.84 16.488 38.752 16.488 41.952C16.488 45.152 17 48.064 18.024 50.688C19.112 53.312 20.616 55.584 22.536 57.504C24.456 59.424 26.728 60.896 29.352 61.92C31.976 62.944 34.856 63.456 37.992 63.456C41.32 63.456 44.392 62.816 47.208 61.536C50.024 60.192 52.584 58.176 54.888 55.488L64.872 64.704C61.672 68.608 57.704 71.584 52.968 73.632C48.296 75.68 43.016 76.704 37.128 76.704Z" fill="black"/>
<path d="M252.992 110.136C257.088 110.136 260.735 110.968 263.935 112.632C267.199 114.232 269.76 116.728 271.616 120.12C273.472 123.448 274.4 127.736 274.4 132.984V162.552H259.423V135.288C259.423 131.128 258.495 128.056 256.639 126.072C254.847 124.088 252.288 123.096 248.96 123.096C246.592 123.096 244.447 123.608 242.527 124.632C240.671 125.592 239.199 127.096 238.111 129.144C237.087 131.192 236.576 133.816 236.576 137.016V162.552H221.6V110.904H235.904V125.208L233.215 120.888C235.072 117.432 237.728 114.776 241.184 112.92C244.64 111.064 248.576 110.136 252.992 110.136Z" fill="black"/>
<path d="M194.029 162.552V152.472L193.07 150.264V132.216C193.07 129.016 192.078 126.52 190.094 124.728C188.174 122.936 185.197 122.04 181.165 122.04C178.413 122.04 175.694 122.488 173.006 123.384C170.382 124.216 168.142 125.368 166.286 126.84L160.91 116.376C163.726 114.392 167.117 112.856 171.085 111.768C175.053 110.68 179.086 110.136 183.182 110.136C191.054 110.136 197.166 111.992 201.518 115.704C205.87 119.416 208.046 125.208 208.046 133.08V162.552H194.029ZM178.286 163.32C174.254 163.32 170.797 162.648 167.917 161.304C165.037 159.896 162.83 158.008 161.294 155.64C159.758 153.272 158.99 150.616 158.99 147.672C158.99 144.6 159.725 141.912 161.197 139.608C162.733 137.304 165.134 135.512 168.398 134.232C171.662 132.888 175.917 132.216 181.165 132.216H194.893V140.952H182.798C179.277 140.952 176.845 141.528 175.501 142.68C174.221 143.832 173.581 145.272 173.581 147C173.581 148.92 174.318 150.456 175.79 151.608C177.326 152.696 179.405 153.24 182.029 153.24C184.525 153.24 186.765 152.664 188.749 151.512C190.733 150.296 192.174 148.536 193.07 146.232L195.374 153.144C194.286 156.472 192.301 159 189.421 160.728C186.541 162.456 182.83 163.32 178.286 163.32Z" fill="black"/>
<path d="M128.825 163.32C122.937 163.32 117.753 162.168 113.273 159.864C108.857 157.56 105.433 154.424 103.001 150.456C100.569 146.424 99.3532 141.848 99.3532 136.728C99.3532 131.544 100.537 126.968 102.905 123C105.337 118.968 108.633 115.832 112.793 113.592C116.953 111.288 121.657 110.136 126.905 110.136C131.961 110.136 136.505 111.224 140.537 113.4C144.633 115.512 147.865 118.584 150.233 122.616C152.601 126.584 153.785 131.352 153.785 136.92C153.785 137.496 153.753 138.168 153.689 138.936C153.625 139.64 153.561 140.312 153.497 140.952H111.545V132.216H145.625L139.865 134.808C139.865 132.12 139.321 129.784 138.233 127.8C137.145 125.816 135.641 124.28 133.721 123.192C131.801 122.04 129.561 121.464 127.001 121.464C124.441 121.464 122.169 122.04 120.185 123.192C118.265 124.28 116.761 125.848 115.673 127.896C114.585 129.88 114.041 132.248 114.041 135V137.304C114.041 140.12 114.649 142.616 115.865 144.792C117.145 146.904 118.905 148.536 121.145 149.688C123.449 150.776 126.137 151.32 129.209 151.32C131.961 151.32 134.361 150.904 136.409 150.072C138.521 149.24 140.441 147.992 142.169 146.328L150.137 154.968C147.769 157.656 144.793 159.736 141.209 161.208C137.625 162.616 133.497 163.32 128.825 163.32Z" fill="black"/>
<path d="M74.3182 162.552V91.32H89.2942V162.552H74.3182Z" fill="black"/>
<path d="M37.128 163.704C31.944 163.704 27.112 162.872 22.632 161.208C18.216 159.48 14.376 157.048 11.112 153.912C7.84799 150.776 5.28799 147.096 3.43199 142.872C1.63999 138.648 0.743988 134.008 0.743988 128.952C0.743988 123.896 1.63999 119.256 3.43199 115.032C5.28799 110.808 7.84799 107.128 11.112 103.992C14.44 100.856 18.312 98.456 22.728 96.792C27.144 95.064 31.976 94.2 37.224 94.2C43.048 94.2 48.296 95.224 52.968 97.272C57.704 99.256 61.672 102.2 64.872 106.104L54.888 115.32C52.584 112.696 50.024 110.744 47.208 109.464C44.392 108.12 41.32 107.448 37.992 107.448C34.856 107.448 31.976 107.96 29.352 108.984C26.728 110.008 24.456 111.48 22.536 113.4C20.616 115.32 19.112 117.592 18.024 120.216C17 122.84 16.488 125.752 16.488 128.952C16.488 132.152 17 135.064 18.024 137.688C19.112 140.312 20.616 142.584 22.536 144.504C24.456 146.424 26.728 147.896 29.352 148.92C31.976 149.944 34.856 150.456 37.992 150.456C41.32 150.456 44.392 149.816 47.208 148.536C50.024 147.192 52.584 145.176 54.888 142.488L64.872 151.704C61.672 155.608 57.704 158.584 52.968 160.632C48.296 162.68 43.016 163.704 37.128 163.704Z" fill="black"/>
<path d="M293.467 122.552C291.839 122.552 290.329 122.259 288.939 121.672C287.549 121.086 286.333 120.272 285.29 119.229C284.248 118.165 283.433 116.938 282.847 115.548C282.282 114.158 282 112.659 282 111.052C282 109.445 282.293 107.946 282.88 106.556C283.466 105.166 284.28 103.95 285.323 102.908C286.365 101.843 287.582 101.018 288.972 100.432C290.383 99.8452 291.904 99.552 293.533 99.552C295.161 99.552 296.671 99.8452 298.061 100.432C299.473 100.996 300.689 101.8 301.71 102.842C302.752 103.885 303.556 105.101 304.12 106.491C304.707 107.859 305 109.358 305 110.987C305 112.616 304.707 114.136 304.12 115.548C303.534 116.938 302.709 118.165 301.644 119.229C300.602 120.272 299.386 121.086 297.996 121.672C296.606 122.259 295.096 122.552 293.467 122.552ZM296.53 117.372L293.402 112.551H296.79L299.918 117.372H296.53ZM293.467 120.434C294.792 120.434 296.019 120.196 297.149 119.718C298.278 119.218 299.266 118.545 300.113 117.698C300.96 116.851 301.612 115.852 302.068 114.701C302.546 113.55 302.785 112.312 302.785 110.987C302.785 109.662 302.546 108.435 302.068 107.306C301.612 106.154 300.971 105.166 300.146 104.341C299.342 103.494 298.376 102.842 297.246 102.386C296.117 101.908 294.879 101.67 293.533 101.67C292.208 101.67 290.97 101.908 289.819 102.386C288.689 102.864 287.701 103.537 286.854 104.406C286.029 105.253 285.388 106.241 284.932 107.371C284.476 108.5 284.248 109.727 284.248 111.052C284.248 112.377 284.476 113.615 284.932 114.766C285.388 115.895 286.029 116.883 286.854 117.73C287.679 118.577 288.657 119.24 289.786 119.718C290.915 120.196 292.143 120.434 293.467 120.434ZM288.516 117.372V104.732H294.021C295.737 104.732 297.084 105.134 298.061 105.937C299.038 106.741 299.527 107.838 299.527 109.228C299.527 110.683 299.038 111.801 298.061 112.583C297.084 113.343 295.737 113.723 294.021 113.723H291.904V117.372H288.516ZM291.871 111.182H293.793C294.553 111.182 295.14 111.009 295.552 110.661C295.987 110.314 296.204 109.836 296.204 109.228C296.204 108.598 295.987 108.109 295.552 107.762C295.14 107.414 294.553 107.24 293.793 107.24H291.871V111.182Z" fill="black"/>
</svg>
